<svg xmlns="http://www.w3.org/2000/svg" width="136" height="24" viewBox="0 0 136 24" fill="none"><path d="M30.3896 20.6345V3.52051H33.2257V18.043H40.9759V20.6345H30.3896Z" fill="#232527"></path><path d="M49.6374 20.6345L49.5152 18.3364V14.3512C49.5152 13.52 49.4255 12.8273 49.2462 12.2731C49.0832 11.7026 48.8061 11.2707 48.415 10.9773C48.0401 10.6677 47.5348 10.5128 46.8991 10.5128C46.3124 10.5128 45.799 10.6351 45.3589 10.8795C44.9188 11.124 44.5439 11.5071 44.2342 12.0286L41.8383 11.1485C42.0991 10.6106 42.4414 10.1135 42.8651 9.65711C43.3052 9.18444 43.8512 8.80956 44.5032 8.53247C45.1714 8.25539 45.9701 8.11685 46.8991 8.11685C48.089 8.11685 49.0832 8.35318 49.8819 8.82586C50.6805 9.28223 51.2673 9.94234 51.6422 10.8062C52.0334 11.67 52.2289 12.7132 52.2289 13.9356L52.1556 20.6345H49.6374ZM46.1168 20.9279C44.6499 20.9279 43.5089 20.6019 42.694 19.95C41.8953 19.298 41.496 18.3771 41.496 17.1873C41.496 15.916 41.9198 14.9462 42.7673 14.2779C43.6312 13.6096 44.8292 13.2755 46.3613 13.2755H49.6374V15.3781H47.2414C46.1494 15.3781 45.3833 15.5329 44.9433 15.8426C44.5032 16.136 44.2831 16.5598 44.2831 17.1139C44.2831 17.5866 44.4706 17.9615 44.8455 18.2386C45.2366 18.4994 45.7745 18.6298 46.4591 18.6298C47.0784 18.6298 47.6163 18.4912 48.0727 18.2141C48.5291 17.937 48.8795 17.5703 49.124 17.1139C49.3848 16.6576 49.5152 16.1441 49.5152 15.5737H50.322C50.322 17.2362 49.9878 18.5483 49.3196 19.5099C48.6513 20.4552 47.5837 20.9279 46.1168 20.9279Z" fill="#232527"></path><path d="M54.3417 20.6345V8.41023H56.9088L57.0799 10.6595V20.6345H54.3417ZM62.6297 20.6345V14.3757H65.368V20.6345H62.6297ZM62.6297 14.3757C62.6297 13.3977 62.5156 12.648 62.2875 12.1264C62.0756 11.5886 61.7659 11.2137 61.3584 11.0018C60.9672 10.7899 60.5027 10.684 59.9648 10.684C59.0521 10.6677 58.3431 10.9692 57.8378 11.5886C57.3325 12.2079 57.0799 13.0962 57.0799 14.2534H56.0531C56.0531 12.9658 56.2405 11.8656 56.6154 10.9529C56.9902 10.0238 57.5281 9.32298 58.229 8.85031C58.9298 8.36133 59.7611 8.11685 60.7227 8.11685C61.7007 8.11685 62.5319 8.31244 63.2165 8.70361C63.9174 9.09479 64.4471 9.70601 64.8057 10.5373C65.1805 11.3522 65.368 12.4198 65.368 13.74V14.3757H62.6297Z" fill="#232527"></path><path d="M76.3076 20.6345L76.1853 18.3608V3.52051H78.8991V20.6345H76.3076ZM72.3225 20.9279C71.2141 20.9279 70.2443 20.6671 69.4131 20.1456C68.5981 19.6077 67.9543 18.8579 67.4816 17.8963C67.0253 16.9346 66.7971 15.81 66.7971 14.5224C66.7971 13.2185 67.0253 12.0938 67.4816 11.1485C67.9543 10.1868 68.5981 9.44522 69.4131 8.92365C70.2443 8.38578 71.2141 8.11685 72.3225 8.11685C73.3493 8.11685 74.2295 8.38578 74.9629 8.92365C75.7127 9.44522 76.2831 10.1868 76.6743 11.1485C77.0655 12.0938 77.2611 13.2185 77.2611 14.5224C77.2611 15.81 77.0655 16.9346 76.6743 17.8963C76.2831 18.8579 75.7127 19.6077 74.9629 20.1456C74.2295 20.6671 73.3493 20.9279 72.3225 20.9279ZM73.007 18.4342C73.6264 18.4342 74.1724 18.2712 74.6451 17.9452C75.1341 17.6029 75.5089 17.1384 75.7697 16.5516C76.0468 15.9649 76.1853 15.2884 76.1853 14.5224C76.1853 13.7563 76.0468 13.0799 75.7697 12.4931C75.5089 11.9064 75.1341 11.45 74.6451 11.124C74.1724 10.798 73.6182 10.6351 72.9826 10.6351C72.3306 10.6351 71.752 10.798 71.2467 11.124C70.7415 11.45 70.3421 11.9064 70.0487 12.4931C69.7717 13.0799 69.625 13.7563 69.6087 14.5224C69.625 15.2884 69.7717 15.9649 70.0487 16.5516C70.3421 17.1384 70.7415 17.6029 71.2467 17.9452C71.7683 18.2712 72.3551 18.4342 73.007 18.4342Z" fill="#232527"></path><path d="M81.7797 20.6345V3.52051H87.8185C88.992 3.52051 90.027 3.75684 90.9235 4.22952C91.8199 4.70219 92.5208 5.3623 93.026 6.20986C93.5313 7.04111 93.784 8.0109 93.784 9.11924C93.784 10.195 93.5476 11.1566 93.0749 12.0042C92.6023 12.8517 91.9422 13.52 91.0946 14.009C90.2634 14.4816 89.2936 14.718 88.1852 14.718H84.6157V20.6345H81.7797ZM84.6157 12.102H88.1363C88.9513 12.102 89.6195 11.8249 90.1411 11.2707C90.6627 10.7165 90.9235 9.99939 90.9235 9.11924C90.9235 8.22279 90.6301 7.49748 90.0433 6.94331C89.4565 6.38915 88.6986 6.11206 87.7696 6.11206H84.6157V12.102Z" fill="#232527"></path><path d="M96.8601 14.1312C96.8601 12.811 97.1127 11.7271 97.618 10.8795C98.1233 10.032 98.7752 9.40447 99.5739 8.997C100.389 8.57322 101.236 8.36133 102.117 8.36133V10.9773C101.367 10.9773 100.658 11.0833 99.9895 11.2952C99.3375 11.4908 98.8078 11.8167 98.4003 12.2731C97.9929 12.7295 97.7891 13.3326 97.7891 14.0823L96.8601 14.1312ZM95.0509 20.6345V8.41023H97.7891V20.6345H95.0509Z" fill="#232527"></path><path d="M108.725 20.9279C107.535 20.9279 106.475 20.659 105.546 20.1211C104.633 19.5669 103.908 18.809 103.37 17.8474C102.849 16.8858 102.588 15.7774 102.588 14.5224C102.588 13.2674 102.857 12.159 103.395 11.1974C103.933 10.2357 104.666 9.48597 105.595 8.9481C106.54 8.39393 107.616 8.11685 108.822 8.11685C109.914 8.11685 110.9 8.40208 111.781 8.97255C112.661 9.52672 113.353 10.3335 113.859 11.393C114.38 12.4524 114.641 13.7156 114.641 15.1825H105.033L105.4 14.8402C105.4 15.59 105.563 16.2419 105.888 16.7961C106.214 17.334 106.646 17.7496 107.184 18.043C107.722 18.3364 108.317 18.4831 108.969 18.4831C109.719 18.4831 110.338 18.3201 110.827 17.9941C111.316 17.6518 111.699 17.2117 111.976 16.6739L114.397 17.7007C114.054 18.3527 113.614 18.9231 113.076 19.4121C112.555 19.9011 111.927 20.276 111.194 20.5367C110.477 20.7975 109.654 20.9279 108.725 20.9279ZM105.571 13.4222L105.179 13.0799H112.074L111.707 13.4222C111.707 12.7539 111.561 12.2079 111.267 11.7841C110.974 11.3441 110.599 11.0181 110.143 10.8062C109.702 10.578 109.238 10.4639 108.749 10.4639C108.26 10.4639 107.771 10.578 107.282 10.8062C106.793 11.0181 106.386 11.3441 106.06 11.7841C105.734 12.2079 105.571 12.7539 105.571 13.4222Z" fill="#232527"></path><path d="M120.528 20.9279C119.713 20.9279 118.963 20.8057 118.279 20.5612C117.594 20.3167 117.007 19.9744 116.518 19.5344C116.029 19.078 115.654 18.5483 115.394 17.9452L117.765 16.8939C118.01 17.3503 118.368 17.7333 118.841 18.043C119.33 18.3527 119.868 18.5075 120.455 18.5075C121.09 18.5075 121.595 18.4016 121.97 18.1897C122.362 17.9615 122.557 17.6518 122.557 17.2606C122.557 16.8858 122.41 16.6005 122.117 16.4049C121.824 16.193 121.408 16.0219 120.87 15.8915L119.721 15.5737C118.564 15.2803 117.659 14.8158 117.007 14.1801C116.355 13.5281 116.029 12.7865 116.029 11.9553C116.029 10.7328 116.421 9.7875 117.203 9.11924C118.002 8.45098 119.142 8.11685 120.626 8.11685C121.375 8.11685 122.06 8.23094 122.679 8.45913C123.315 8.67102 123.861 8.9807 124.317 9.38818C124.774 9.77935 125.092 10.2439 125.271 10.7817L122.997 11.8086C122.834 11.4011 122.525 11.0914 122.068 10.8795C121.612 10.6514 121.106 10.5373 120.552 10.5373C119.998 10.5373 119.566 10.6595 119.257 10.904C118.947 11.1322 118.792 11.4582 118.792 11.8819C118.792 12.1264 118.931 12.3546 119.208 12.5665C119.485 12.7621 119.884 12.9251 120.406 13.0555L121.848 13.3977C122.647 13.5933 123.299 13.903 123.804 14.3268C124.309 14.7343 124.684 15.1988 124.929 15.7204C125.173 16.2256 125.295 16.7391 125.295 17.2606C125.295 17.9941 125.083 18.6379 124.66 19.1921C124.252 19.7462 123.69 20.1782 122.973 20.4878C122.256 20.7812 121.441 20.9279 120.528 20.9279Z" fill="#232527"></path><path d="M131.233 20.9279C130.418 20.9279 129.668 20.8057 128.983 20.5612C128.299 20.3167 127.712 19.9744 127.223 19.5344C126.734 19.078 126.359 18.5483 126.098 17.9452L128.47 16.8939C128.714 17.3503 129.073 17.7333 129.546 18.043C130.035 18.3527 130.572 18.5075 131.159 18.5075C131.795 18.5075 132.3 18.4016 132.675 18.1897C133.066 17.9615 133.262 17.6518 133.262 17.2606C133.262 16.8858 133.115 16.6005 132.822 16.4049C132.528 16.193 132.113 16.0219 131.575 15.8915L130.426 15.5737C129.269 15.2803 128.364 14.8158 127.712 14.1801C127.06 13.5281 126.734 12.7865 126.734 11.9553C126.734 10.7328 127.125 9.7875 127.908 9.11924C128.706 8.45098 129.847 8.11685 131.33 8.11685C132.08 8.11685 132.765 8.23094 133.384 8.45913C134.02 8.67102 134.566 8.9807 135.022 9.38818C135.478 9.77935 135.796 10.2439 135.976 10.7817L133.702 11.8086C133.539 11.4011 133.229 11.0914 132.773 10.8795C132.316 10.6514 131.811 10.5373 131.257 10.5373C130.703 10.5373 130.271 10.6595 129.961 10.904C129.652 11.1322 129.497 11.4582 129.497 11.8819C129.497 12.1264 129.635 12.3546 129.912 12.5665C130.189 12.7621 130.589 12.9251 131.11 13.0555L132.553 13.3977C133.351 13.5933 134.003 13.903 134.509 14.3268C135.014 14.7343 135.389 15.1988 135.633 15.7204C135.878 16.2256 136 16.7391 136 17.2606C136 17.9941 135.788 18.6379 135.364 19.1921C134.957 19.7462 134.395 20.1782 133.677 20.4878C132.96 20.7812 132.145 20.9279 131.233 20.9279Z" fill="#232527"></path><path d="M10.6179 17.6323C11.1646 18.067 11.9391 18.0667 12.4856 17.6317L20.9989 10.8543L21.6221 10.3609C22.3795 9.76112 22.3807 8.61226 21.6246 8.01092L12.4857 0.742573C11.9391 0.307882 11.1649 0.307882 10.6183 0.742574L1.47483 8.01451C0.720152 8.61471 0.719665 9.76082 1.47383 10.3617L2.09219 10.8543L10.6179 17.6323Z" fill="#E9BB71"></path><path opacity="0.5" fill-rule="evenodd" clip-rule="evenodd" d="M12.4726 20.9662C11.9262 21.4008 11.1521 21.4009 10.6055 20.9664L3.00139 14.9211C2.49408 14.5178 1.75497 14.6069 1.35815 15.1194C0.963212 15.6293 1.05877 16.3633 1.57111 16.7552L10.6388 23.6906C11.1766 24.102 11.9233 24.102 12.4612 23.6908L21.5247 16.7612C22.0414 16.3661 22.1375 15.6259 21.7388 15.112C21.3387 14.5963 20.5944 14.5069 20.0835 14.9132L12.4726 20.9662Z" fill="#E9BB71"></path></svg>